# Blender v2.77 (sub 0) OBJ File: ''
# www.blender.org
mtllib crystal_shape02.mtl
o Crystal_Taya2.000
v 0.06739 0.25244 0.12075
v 0.01956 0.43504 0.04196
v 0.04129 0.24144 0.13098
v 0.11672 0.02214 0.25031
v 0.00000 0.51819 0.00000
v 0.26389 -0.00477 -0.12306
v 0.23148 -0.23541 0.23148
v 0.12306 -0.00477 0.26389
v 0.23266 -0.13100 -0.18731
v 0.24664 -0.12754 -0.16476
v 0.23359 -0.22037 -0.22441
v -0.06315 0.24980 -0.13543
v -0.08197 0.10863 -0.20143
v 0.23148 -0.23541 -0.23148
v -0.11933 0.01106 -0.25590
v -0.12306 -0.00477 -0.26389
v -0.10407 0.10810 -0.18614
v -0.18415 0.15325 0.08587
v -0.09799 0.31187 0.03172
v -0.01187 0.49467 0.00554
v -0.23148 -0.23541 -0.23148
v -0.26389 -0.00477 0.12306
v -0.09284 0.30199 0.05679
v -0.23148 -0.23541 0.23148
v -0.19685 -0.48181 -0.19685
v 0.19685 -0.48181 -0.19685
v 0.19685 -0.48181 0.19685
v -0.19685 -0.48181 0.19685
vt 0.0323 -0.2020
vt -0.0000 0.0000
vt 0.0048 -0.2141
vt 0.0306 -0.2671
vt -0.0000 0.0000
vt -0.0273 -0.0128
vt 0.0000 0.0000
vt -0.0327 -0.0894
vt 0.2059 -0.5620
vt -0.0904 -0.2856
vt -0.1383 -0.8099
vt -0.1953 -0.5331
vt -0.2059 -0.5620
vt 0.0710 -0.1265
vt -0.0000 0.0000
vt 0.0445 -0.1230
vt 0.0304 -0.0919
vt -0.0000 0.0000
vt -0.0265 0.0036
vt -0.2059 -0.5620
vt 0.1057 -0.2884
vt -0.1546 -0.6977
vt 0.1459 -0.4402
vt -0.1383 -0.8099
vt 0.1997 -0.5450
vt 0.2059 -0.5620
vt -0.1428 -0.7937
vt 0.0000 0.0000
vt 0.0280 0.1172
vt 0.0012 0.1178
vt 0.0000 0.0000
vt -0.0042 0.1559
vt -0.0269 0.0006
vt -0.1393 -0.4407
vt 0.1437 -0.3922
vt -0.1057 -0.2884
vt 0.0633 -0.2217
vt 0.0093 -0.0253
vt -0.1383 -0.8099
vt -0.1997 -0.5450
vt -0.2059 -0.5620
vt 0.2059 -0.5620
vt 0.0000 0.0000
vt 0.0137 0.1764
vt -0.0111 0.1881
vt 0.0000 0.0000
vt -0.0163 0.2146
vt -0.0251 0.0110
vt 0.0327 -0.0894
vt -0.0678 -0.2324
vt 0.0836 -0.2974
vt -0.1437 -0.3922
vt -0.1383 -0.8099
vt -0.2059 -0.5620
vt -0.0093 -0.0253
vt 0.2059 -0.5620
vt 0.1953 -0.5331
vt -0.0738 0.4817
vt -0.4283 0.2488
vt 0.0346 0.2488
vt 0.0000 0.0000
vt -0.3937 0.0000
vt -0.0738 0.4817
vt -0.4283 0.2488
vt -0.0321 0.3577
vt 0.0276 0.2640
vt 0.0346 0.2488
vt 0.0000 0.0000
vt -0.3937 0.0000
vt -0.0738 0.4817
vt -0.4283 0.2488
vt 0.0346 0.2488
vt 0.0000 0.0000
vt -0.3937 0.0000
vt -0.0738 0.4817
vt -0.4283 0.2488
vt 0.0346 0.2488
vt 0.0000 0.0000
vt -0.3937 0.0000
vt 0.1969 0.1969
vt -0.1969 0.1969
vt 0.1969 -0.1969
vt -0.1969 -0.1969
vn 0.1681 0.4273 0.8883
vn 0.1213 0.5063 0.8538
vn 0.8744 0.3663 0.3183
vn 0.8744 0.3663 0.3182
vn 0.8745 0.3664 0.3178
vn 0.8439 0.0624 -0.5328
vn 0.8105 0.2318 -0.5380
vn 0.3182 0.3663 -0.8744
vn 0.3183 0.3663 -0.8744
vn 0.3181 0.3663 -0.8744
vn -0.4802 0.5605 -0.6747
vn -0.5239 0.4171 -0.7427
vn -0.8744 0.3663 -0.3182
vn -0.8744 0.3663 -0.3183
vn -0.8744 0.3663 -0.3181
vn -0.7587 0.5377 0.3678
vn -0.8295 0.4401 0.3438
vn -0.3182 0.3663 0.8744
vn -0.3183 0.3663 0.8744
vn -0.3181 0.3663 0.8744
vn -0.3180 0.3664 0.8744
vn -0.3181 0.3664 0.8744
vn 0.0000 -0.1392 -0.9903
vn 0.9903 -0.1391 0.0000
vn 0.9903 -0.1392 0.0000
vn 0.9903 -0.1390 -0.0000
vn 0.0000 -0.1392 0.9903
vn -0.9903 -0.1392 -0.0000
vn 0.0000 -1.0000 -0.0000
usemtl wire_191191191.000
s 1
f 1/1/1 2/2/1 3/3/1
f 4/4/2 1/5/2 3/6/2
f 5/7/3 2/8/3 6/9/4
f 6/9/4 2/8/3 1/10/4
f 6/9/4 1/10/4 7/11/4
f 7/11/4 1/10/4 4/12/4
f 7/11/4 4/12/4 8/13/5
f 9/14/6 6/15/6 10/16/6
f 11/17/7 9/18/7 10/19/7
f 5/7/8 6/20/8 12/21/8
f 12/21/8 6/20/8 9/22/8
f 12/21/8 9/22/8 13/23/8
f 13/23/8 9/22/8 14/24/9
f 13/23/8 14/24/9 15/25/8
f 15/25/8 14/24/9 16/26/8
f 9/22/8 11/27/10 14/24/9
f 15/28/11 17/29/11 13/30/11
f 17/31/12 12/32/12 13/33/12
f 17/34/13 18/35/13 12/36/14
f 12/36/14 18/35/13 19/37/14
f 12/36/14 19/37/14 20/38/13
f 18/35/13 17/34/13 21/39/13
f 21/39/13 17/34/13 15/40/13
f 21/39/13 15/40/13 16/41/15
f 21/39/13 22/42/13 18/35/13
f 20/38/13 5/7/13 12/36/14
f 18/43/16 23/44/16 19/45/16
f 23/46/17 20/47/17 19/48/17
f 2/49/18 23/50/19 3/51/19
f 3/51/19 23/50/19 18/52/18
f 3/51/19 18/52/18 24/53/18
f 24/53/18 18/52/18 22/54/20
f 5/7/21 20/55/22 2/49/18
f 2/49/18 20/55/22 23/50/19
f 8/56/18 4/57/18 24/53/18
f 24/53/18 4/57/18 3/51/19
f 16/58/23 14/59/23 21/60/23
f 21/60/23 14/59/23 25/61/23
f 25/61/23 14/59/23 26/62/23
f 6/63/24 7/64/25 10/65/25
f 10/65/25 7/64/25 11/66/26
f 11/66/26 7/64/25 14/67/24
f 14/67/24 7/64/25 26/68/25
f 26/68/25 7/64/25 27/69/25
f 8/70/27 24/71/27 7/72/27
f 7/72/27 24/71/27 27/73/27
f 27/73/27 24/71/27 28/74/27
f 22/75/28 21/76/28 24/77/28
f 24/77/28 21/76/28 28/78/28
f 28/78/28 21/76/28 25/79/28
f 27/80/29 28/81/29 26/82/29
f 26/82/29 28/81/29 25/83/29
